# xmcd
#
# Track frame offsets: 
#        150
#        17686
#        34118
#        51205
#        66933
#        77623
#        91868
#        109995
#        124976
#        140345
#        156212
#        170702
#        186947
#        202942
#        218364
#        234611
#        250603
#        267312
#        284069
#        299315
#        317175
#
# Disc length: 4471 seconds
#
# Revision: 17
# Processed by: cddbd v1.5.2PL0 Copyright (c) Steve Scherf et al.
# Submitted via: ExactAudioCopy v1.0b3
#
DISCID=36117515
DTITLE=Various Artist - Bravo Hits 31
DYEAR=2000
DGENRE=Pop
TTITLE0=Ronan Keating - Life Is a Rollercoaster (Radio Edit)
TTITLE1=Orange Blue - She's Got That Light (Orange Mix)
TTITLE2=Toploader - Dancing in the Moonlight (Single Version)
TTITLE3=Reamonn - Josephine (Radio Mix)
TTITLE4=Phil Collins - Two Worlds (Phil Version)
TTITLE5=Five and Queen - We Will Rock You (Single Version)
TTITLE6=Sebastian Deyle - Melody of Life (Radio One Version)
TTITLE7=Magic Voices - Australia (Single Version)
TTITLE8=Christina Aguilera - Come On Over Baby (Single Version)
TTITLE9=Marc Anthony - When I Dream at Night (Radio Edit)
TTITLE10=°NSYNC - It's Gonna Be Me (Single Version)
TTITLE11=Jeanette - Go Back ... (Radio Edit)
TTITLE12=A1 - Take on Me (Single Version)
TTITLE13=No-Wonder - Gimme Gimme Gimme (Radio Version)
TTITLE14=Marque - Electronic Lady (Single Version)
TTITLE15=Dankner - Will I Ever (Radio Edit)
TTITLE16=Mary Mary - I Sings (Radio Edit without Rap)
TTITLE17=Vanessa Amorosi - Absolutely Everybody (Radio Version)
TTITLE18=Sisqo - Unleash the Dragon (Stargate Radio Version)
TTITLE19=Mya - Case of the Ex (Album Version)
TTITLE20=Ayman - Ayman Hit-Medley (Single Version)
EXTD=
EXTT0=
EXTT1=
EXTT2=
EXTT3=
EXTT4=
EXTT5=
EXTT6=
EXTT7=
EXTT8=
EXTT9=
EXTT10=
EXTT11=
EXTT12=
EXTT13=
EXTT14=
EXTT15=
EXTT16=
EXTT17=
EXTT18=
EXTT19=
EXTT20=
PLAYORDER=
